<svg xmlns="http://www.w3.org/2000/svg" version="1.1" xmlns:xlink="http://www.w3.org/1999/xlink" xmlns:svgjs="http://svgjs.dev/svgjs" width="1500" height="1500" viewBox="0 0 1500 1500"><rect width="1500" height="1500" fill="#ffffff"></rect><g transform="matrix(0.6666666666666666,0,0,0.6666666666666666,249.43242486528612,489)"><svg viewBox="0 0 383 200" data-background-color="#89939e" preserveAspectRatio="xMidYMid meet" height="783" width="1500" xmlns="http://www.w3.org/2000/svg" xmlns:xlink="http://www.w3.org/1999/xlink"><g id="tight-bounds" transform="matrix(1,0,0,1,0.21738127659543238,0)"><svg viewBox="0 0 382.56523744680914 200" height="200" width="382.56523744680914"><g><svg viewBox="0 0 395.52 206.77257695427284" height="200" width="382.56523744680914"><g><svg viewBox="0 0 395.52 206.77257695427284" height="206.77257695427284" width="395.52"><g id="textblocktransform"><svg viewBox="0 0 395.52 206.77257695427284" height="206.77257695427284" width="395.52" id="textblock"><g><svg viewBox="0 0 395.52 150.61751318764132" height="150.61751318764132" width="395.52"><g transform="matrix(1,0,0,1,0,0)"><svg width="395.52" viewBox="20.43 -34.3 199.04999999999998 72.80000000000001" height="150.61751318764132" data-palette-color="#000000"><svg></svg><svg></svg><g class="wordmark-text-0" data-fill-palette-color="primary" id="text-0"><path d="M25.18 0.6c-1.1 0-2.1-0.35-3-1.05-0.9-0.7-1.483-1.533-1.75-2.5v0l3.5-1.45c0.267 0.5 0.467 0.817 0.6 0.95 0.133 0.133 0.35 0.2 0.65 0.2v0c0.233 0 0.41-0.05 0.53-0.15 0.113-0.1 0.22-0.267 0.32-0.5v0l6.45-30.4h3.75l9.6 26.3 0.65 2.3 0.65-2.3 9.7-26.3h3.8l7.05 34.35h-4.1l-5.4-26.9-0.05-0.8-0.15 0.8-9.7 26.9h-3.6l-9.55-26.6-0.15-1.1-0.15 1.1-4.9 23.25c-0.233 1.067-0.8 1.983-1.7 2.75-0.9 0.767-1.917 1.15-3.05 1.15zM82.93 0.5c-2.467 0-4.573-0.543-6.32-1.63-1.753-1.08-3.08-2.547-3.98-4.4-0.9-1.847-1.35-3.92-1.35-6.22v0c0-2.267 0.433-4.467 1.3-6.6 0.867-2.133 2.167-3.9 3.9-5.3 1.733-1.4 3.867-2.1 6.4-2.1v0c1.667 0 3.217 0.323 4.65 0.97 1.433 0.653 2.573 1.587 3.42 2.8 0.853 1.22 1.28 2.63 1.28 4.23v0c0 2.567-1.05 4.583-3.15 6.05-2.1 1.467-4.833 2.167-8.2 2.1v0l-5.2-0.1c0.367 2.067 1.177 3.657 2.43 4.77 1.247 1.12 2.903 1.68 4.97 1.68v0c2.7 0 5.267-0.9 7.7-2.7v0l2.25 2.85c-3.167 2.4-6.533 3.6-10.1 3.6zM80.88-13.2c2.233 0 4-0.383 5.3-1.15 1.3-0.767 1.95-1.917 1.95-3.45v0c0-1.367-0.49-2.417-1.47-3.15-0.987-0.733-2.163-1.1-3.53-1.1v0c-1.533 0-2.867 0.457-4 1.37-1.133 0.92-2 2.063-2.6 3.43-0.6 1.367-0.95 2.717-1.05 4.05v0zM121.43-4.05l2.95 1.85c-0.467 0.867-1.073 1.54-1.82 2.02-0.753 0.487-1.63 0.73-2.63 0.73v0c-1.567 0-2.807-0.46-3.72-1.38-0.92-0.913-1.38-2.17-1.38-3.77v0-12.25c0-1.667-0.35-2.943-1.05-3.83-0.7-0.88-1.9-1.32-3.6-1.32v0c-1.533 0-2.84 0.367-3.92 1.1-1.087 0.733-2.197 1.85-3.33 3.35v0 17.6h-4.1v-17.55c0-2.6-0.7-4.5-2.1-5.7v0l2.75-2.55c0.567 0.3 1.117 0.79 1.65 1.47 0.533 0.687 0.967 1.463 1.3 2.33v0c2.067-2.5 4.733-3.75 8-3.75v0c2.467 0 4.467 0.657 6 1.97 1.533 1.32 2.367 3.18 2.5 5.58v0 13.7c0 0.367 0.117 0.673 0.35 0.92 0.233 0.253 0.533 0.38 0.9 0.38v0c0.533 0 0.95-0.3 1.25-0.9zM144.78-3.05c-0.7 1.1-1.8 1.95-3.3 2.55-1.5 0.6-3.05 0.9-4.65 0.9v0c-2.533 0-4.583-0.643-6.15-1.93-1.567-1.28-2.383-3.187-2.45-5.72v0-10.2c0-2.6-0.7-4.5-2.1-5.7v0l2.75-2.55c0.833 0.467 1.61 1.3 2.33 2.5 0.713 1.2 1.087 2.483 1.12 3.85v0 10.8c0 1.7 0.367 3 1.1 3.9 0.733 0.9 1.95 1.35 3.65 1.35v0c1.5 0 2.767-0.35 3.8-1.05 1.033-0.7 2.167-1.867 3.4-3.5v0l0.05-17.15h4.1v20.35c0 0.467 0.11 0.823 0.33 1.07 0.213 0.253 0.537 0.38 0.97 0.38v0c0.567 0 1.017-0.283 1.35-0.85v0l2.8 1.85c-0.433 0.833-1.057 1.49-1.87 1.97-0.82 0.487-1.697 0.73-2.63 0.73v0c-1.233 0-2.29-0.36-3.17-1.08-0.887-0.713-1.363-1.553-1.43-2.52v0zM165.63 0.5c-3.667 0-6.9-1.4-9.7-4.2v0l2.35-2.75c1.267 1.1 2.467 1.907 3.6 2.42 1.133 0.52 2.333 0.78 3.6 0.78v0c1.633 0 2.927-0.36 3.88-1.08 0.947-0.713 1.42-1.703 1.42-2.97v0c0-0.767-0.19-1.383-0.57-1.85-0.387-0.467-0.937-0.877-1.65-1.23-0.72-0.347-1.913-0.853-3.58-1.52v0c-1.833-0.733-3.257-1.377-4.27-1.93-1.02-0.547-1.83-1.247-2.43-2.1-0.6-0.847-0.9-1.903-0.9-3.17v0c0-2.067 0.733-3.733 2.2-5 1.467-1.267 3.367-1.9 5.7-1.9v0c1.367 0 2.743 0.223 4.13 0.67 1.38 0.453 2.47 1.03 3.27 1.73v0l-1.75 2.95c-1.5-1.1-3.25-1.65-5.25-1.65v0c-1.267 0-2.273 0.257-3.02 0.77-0.753 0.52-1.13 1.23-1.13 2.13v0c0 0.933 0.377 1.657 1.13 2.17 0.747 0.52 2.037 1.147 3.87 1.88v0c2.067 0.833 3.683 1.583 4.85 2.25 1.167 0.667 2.05 1.44 2.65 2.32 0.6 0.887 0.9 1.997 0.9 3.33v0c0 2.367-0.867 4.283-2.6 5.75-1.733 1.467-3.967 2.2-6.7 2.2zM181.23-23.85l-0.55-10.45h4.75l-0.55 10.45zM216.53-4.05l2.95 1.85c-0.467 0.867-1.073 1.54-1.82 2.02-0.753 0.487-1.63 0.73-2.63 0.73v0c-1.567 0-2.807-0.46-3.72-1.38-0.92-0.913-1.38-2.17-1.38-3.77v0-12.25c0-1.667-0.35-2.943-1.05-3.83-0.7-0.88-1.9-1.32-3.6-1.32v0c-1.533 0-2.843 0.367-3.93 1.1-1.08 0.733-2.187 1.85-3.32 3.35v0 17.6h-4.1v-17.55c0-2.6-0.7-4.5-2.1-5.7v0l2.75-2.55c0.567 0.3 1.117 0.79 1.65 1.47 0.533 0.687 0.967 1.463 1.3 2.33v0c2.067-2.5 4.733-3.75 8-3.75v0c2.467 0 4.467 0.657 6 1.97 1.533 1.32 2.367 3.18 2.5 5.58v0 13.7c0 0.367 0.117 0.673 0.35 0.92 0.233 0.253 0.533 0.38 0.9 0.38v0c0.533 0 0.95-0.3 1.25-0.9z" fill="#000000" fill-rule="nonzero" stroke="none" stroke-width="1" stroke-linecap="butt" stroke-linejoin="miter" stroke-miterlimit="10" stroke-dasharray="" stroke-dashoffset="0" font-family="none" font-weight="none" font-size="none" text-anchor="none" style="mix-blend-mode: normal" data-fill-palette-color="primary" opacity="1"></path><path d="M65.43 38.5c-1.1 0-2.1-0.35-3-1.05-0.9-0.7-1.483-1.533-1.75-2.5v0l3.5-1.45c0.267 0.5 0.467 0.817 0.6 0.95 0.133 0.133 0.35 0.2 0.65 0.2v0c0.233 0 0.41-0.05 0.53-0.15 0.113-0.1 0.22-0.267 0.32-0.5v0l6.45-30.4h3.75l9.6 26.3 0.65 2.3 0.65-2.3 9.7-26.3h3.8l7.05 34.35h-4.1l-5.4-26.9-0.05-0.8-0.15 0.8-9.7 26.9h-3.6l-9.55-26.6-0.15-1.1-0.15 1.1-4.9 23.25c-0.233 1.067-0.8 1.983-1.7 2.75-0.9 0.767-1.917 1.15-3.05 1.15zM123.83 38.4c-2.367 0-4.493-0.567-6.38-1.7-1.88-1.133-3.353-2.693-4.42-4.68-1.067-1.98-1.6-4.22-1.6-6.72v0c0-2.5 0.54-4.76 1.62-6.78 1.087-2.013 2.573-3.597 4.46-4.75 1.88-1.147 4.003-1.72 6.37-1.72v0c2.367 0 4.49 0.567 6.37 1.7 1.887 1.133 3.363 2.707 4.43 4.72 1.067 2.02 1.6 4.28 1.6 6.78v0c0 2.5-0.533 4.75-1.6 6.75-1.067 2-2.55 3.567-4.45 4.7-1.9 1.133-4.033 1.7-6.4 1.7zM123.88 34.7c2.5 0 4.51-0.867 6.03-2.6 1.513-1.733 2.27-4.017 2.27-6.85v0c0-2.867-0.757-5.167-2.27-6.9-1.52-1.733-3.53-2.6-6.03-2.6v0c-1.633 0-3.083 0.4-4.35 1.2-1.267 0.8-2.25 1.917-2.95 3.35-0.7 1.433-1.05 3.083-1.05 4.95v0c0 2.833 0.767 5.117 2.3 6.85 1.533 1.733 3.55 2.6 6.05 2.6zM152.13 12.05c0.967 0 2.117 0.167 3.45 0.5v0l-0.1 3.95c-1.333-0.367-2.417-0.55-3.25-0.55v0c-1.567 0-2.783 0.367-3.65 1.1v0c-1 0.8-1.867 1.867-2.6 3.2v0 17.7h-4.1v-17.7c0-2.6-0.7-4.5-2.1-5.7v0l2.75-2.55c0.5 0.3 1.01 0.75 1.53 1.35 0.513 0.6 0.937 1.283 1.27 2.05v0c0.733-0.933 1.483-1.65 2.25-2.15v0c1.267-0.8 2.783-1.2 4.55-1.2zM169.13 38.4c-2.467 0-4.573-0.543-6.32-1.63-1.753-1.08-3.08-2.547-3.98-4.4-0.9-1.847-1.35-3.92-1.35-6.22v0c0-2.267 0.433-4.467 1.3-6.6 0.867-2.133 2.167-3.9 3.9-5.3 1.733-1.4 3.867-2.1 6.4-2.1v0c1.667 0 3.217 0.323 4.65 0.97 1.433 0.653 2.577 1.587 3.43 2.8 0.847 1.22 1.27 2.63 1.27 4.23v0c0 2.567-1.05 4.583-3.15 6.05-2.1 1.467-4.833 2.167-8.2 2.1v0l-5.2-0.1c0.367 2.067 1.177 3.657 2.43 4.77 1.247 1.12 2.903 1.68 4.97 1.68v0c2.7 0 5.267-0.9 7.7-2.7v0l2.25 2.85c-3.167 2.4-6.533 3.6-10.1 3.6zM167.08 24.7c2.233 0 4-0.383 5.3-1.15 1.3-0.767 1.95-1.917 1.95-3.45v0c0-1.367-0.49-2.417-1.47-3.15-0.987-0.733-2.163-1.1-3.53-1.1v0c-1.533 0-2.867 0.457-4 1.37-1.133 0.92-2 2.063-2.6 3.43-0.6 1.367-0.95 2.717-1.05 4.05v0z" fill="#000000" fill-rule="nonzero" stroke="none" stroke-width="1" stroke-linecap="butt" stroke-linejoin="miter" stroke-miterlimit="10" stroke-dasharray="" stroke-dashoffset="0" font-family="none" font-weight="none" font-size="none" text-anchor="none" style="mix-blend-mode: normal" data-fill-palette-color="primary" opacity="1"></path></g></svg></g></svg></g><g transform="matrix(1,0,0,1,75.54432,166.98882695427284)"><svg viewBox="0 0 244.43135999999998 39.78375" height="39.78375" width="244.43135999999998"><g transform="matrix(1,0,0,1,0,0)"><svg width="244.43135999999998" viewBox="0.95 -37.5 307.17 50" height="39.78375" data-palette-color="#313131"><path d="M14.45-9.6L14.45-9.6Q15.95-9.6 16.95-10.05 17.95-10.5 18.7-11.45L18.7-11.45 20.85-20.95 27.3-20.9 23.2-2.1Q21.75 4.7 18.75 7.53 15.75 10.35 10.4 10.35L10.4 10.35Q7.25 10.35 5.35 8.4 3.45 6.45 3.45 3.45L3.45 3.45Q3.45 0.55 5.15-1.43 6.85-3.4 9.55-3.4L9.55-3.4Q12.25-3.4 13.35-2.58 14.45-1.75 14.45-0.05L14.45-0.05Q14.45 0.35 14.38 0.88 14.3 1.4 14.15 1.95L14.15 1.95Q13.3 1.25 12.65 0.95 12 0.65 11.15 0.65L11.15 0.65Q9.6 0.65 8.63 1.75 7.65 2.85 7.65 4.45L7.65 4.45Q7.65 5.95 8.5 6.9 9.35 7.85 10.8 7.85L10.8 7.85Q12.85 7.85 13.95 6.43 15.05 5 15.8 1.7L15.8 1.7 17.8-7.25Q16.25-6.4 14.5-5.93 12.75-5.45 11.7-5.45L11.7-5.45Q6.4-5.45 3.68-8.72 0.95-12 0.95-18.25L0.95-18.25Q0.95-21.95 2.23-25.48 3.5-29 5.8-31.65L5.8-31.65Q8.25-34.5 11.53-36 14.8-37.5 18.65-37.5L18.65-37.5Q22.85-37.5 25.4-35.73 27.95-33.95 27.95-30.8L27.95-30.8Q27.95-28.55 27.05-27.38 26.15-26.2 24.45-26.2L24.45-26.2Q23.4-26.2 22.48-26.55 21.55-26.9 21-27.5L21-27.5Q21.85-27.75 22.53-29.1 23.2-30.45 23.2-31.6L23.2-31.6Q23.2-33.2 22.3-34.18 21.4-35.15 19.75-35.15L19.75-35.15Q17.6-35.15 15.43-33.38 13.25-31.6 11.55-28.45L11.55-28.45Q10.15-26 9.4-23.23 8.65-20.45 8.65-17.85L8.65-17.85Q8.65-14 10.18-11.8 11.7-9.6 14.45-9.6ZM36.5-28.55L36.5-28.55Q36.5-32.4 39.82-34.95 43.15-37.5 48.05-37.5L48.05-37.5Q51.85-37.5 53.97-35.95 56.1-34.4 56.1-31.5L56.1-31.5Q56.1-29.25 54.97-27.85 53.85-26.45 52-26.45L52-26.45Q51.3-26.45 50.72-26.7 50.15-26.95 49.7-27.5L49.7-27.5Q50.7-28.1 51.32-29.3 51.95-30.5 51.95-31.8L51.95-31.8Q51.95-33.4 51-34.27 50.05-35.15 48.25-35.15L48.25-35.15Q46.1-35.15 44.87-33.95 43.65-32.75 43.65-30.6L43.65-30.6Q43.65-28.85 44.55-27.28 45.45-25.7 48.45-23.05L48.45-23.05Q52.4-19.6 53.65-17.07 54.9-14.55 54.9-11.45L54.9-11.45Q54.9-5.75 50.95-2.35 47 1.05 40.85 1.05L40.85 1.05Q35.95 1.05 33.1-1.2 30.25-3.45 30.25-7.55L30.25-7.55Q30.25-11.15 32.4-13.45 34.55-15.75 37.6-15.75L37.6-15.75Q39.5-15.75 40.7-14.88 41.9-14 42-12.45L42-12.45Q39.4-12.45 37.77-11.2 36.15-9.95 36.15-7.75L36.15-7.75Q36.15-5.65 37.45-4.3 38.75-2.95 40.95-2.95L40.95-2.95Q43.55-2.95 45.15-4.75 46.75-6.55 46.75-9.6L46.75-9.6Q46.75-11.95 45.7-14.1 44.65-16.25 41.35-19.85L41.35-19.85Q38.35-23.05 37.42-24.88 36.5-26.7 36.5-28.55ZM68.4-11.1L58.35-11.1 59.25-15.05 69.25-15.05 68.4-11.1ZM84.19-2L83.79 0 76.59 0 83.39-31.8 90.79-32.8 84.79-4.75Q85.49-4.25 86.19-4 86.89-3.75 87.64-3.75L87.64-3.75Q91.69-3.75 94.47-10.43 97.24-17.1 97.24-25.75L97.24-25.75Q97.24-30.45 95.39-32.83 93.54-35.2 89.94-35.2L89.94-35.2Q84.09-35.2 80.47-31.88 76.84-28.55 76.84-23.05L76.84-23.05Q76.84-22.1 76.97-21.4 77.09-20.7 77.39-20.05L77.39-20.05Q77.49-19.85 77.52-19.78 77.54-19.7 77.54-19.65L77.54-19.65Q74.84-19.65 73.52-20.8 72.19-21.95 72.19-24.3L72.19-24.3Q72.19-27.05 73.97-29.68 75.74-32.3 78.84-34.25L78.84-34.25Q81.39-35.8 84.47-36.65 87.54-37.5 90.79-37.5L90.79-37.5Q97.19-37.5 100.67-33.68 104.14-29.85 104.14-23.1L104.14-23.1Q104.14-19.45 103.29-15.7 102.44-11.95 100.89-8.7L100.89-8.7Q98.84-4.3 96.04-1.83 93.24 0.65 90.29 0.65L90.29 0.65Q88.79 0.65 87.27-0.03 85.74-0.7 84.19-2L84.19-2ZM117.39-31.65L117.39-31.65Q117.39-30 116.22-28.85 115.04-27.7 113.39-27.7L113.39-27.7Q111.74-27.7 110.59-28.85 109.44-30 109.44-31.65L109.44-31.65Q109.44-33.3 110.59-34.48 111.74-35.65 113.39-35.65L113.39-35.65Q115.04-35.65 116.22-34.48 117.39-33.3 117.39-31.65ZM104.64-5.7L104.64-5.7Q104.64-6.35 104.74-7.18 104.84-8 105.04-8.95L105.04-8.95 108.44-25 115.64-25 112.04-8Q111.94-7.55 111.89-7.18 111.84-6.8 111.84-6.4L111.84-6.4Q111.84-5.4 112.32-4.98 112.79-4.55 113.89-4.55L113.89-4.55Q115.29-4.55 116.54-5.78 117.79-7 118.39-8.95L118.39-8.95 120.49-8.95Q118.89-4.4 116.19-2.05 113.49 0.3 109.99 0.3L109.99 0.3Q107.49 0.3 106.07-1.28 104.64-2.85 104.64-5.7ZM134.64-22.7L134.64-22.7 134.64-22.4 135.19-25 142.39-25 137.44-1.8Q139.94-2.7 141.36-4.33 142.79-5.95 143.74-8.95L143.74-8.95 145.84-8.95Q144.69-5.15 142.56-2.85 140.44-0.55 136.99 0.4L136.99 0.4 136.24 4Q135.34 8.2 133.09 10.35 130.84 12.5 127.24 12.5L127.24 12.5Q124.69 12.5 123.16 11.2 121.64 9.9 121.64 7.65L121.64 7.65Q121.64 5.2 123.66 3.33 125.69 1.45 129.79 0.2L129.79 0.2 130.39-2.45Q129.09-1.1 127.59-0.4 126.09 0.3 124.39 0.3L124.39 0.3Q121.29 0.3 119.51-1.8 117.74-3.9 117.74-7.75L117.74-7.75Q117.74-10.55 118.59-13.6 119.44-16.65 120.94-19.15L120.94-19.15Q122.79-22.1 125.24-23.68 127.69-25.25 130.59-25.25L130.59-25.25Q132.54-25.25 133.59-24.58 134.64-23.9 134.64-22.7ZM131.64-8.45L134.19-20.3Q134.14-21.1 133.59-21.63 133.04-22.15 132.14-22.15L132.14-22.15Q129.39-22.15 127.26-17.55 125.14-12.95 125.14-8.45L125.14-8.45Q125.14-6.5 125.69-5.53 126.24-4.55 127.64-4.55L127.64-4.55Q128.84-4.55 130.01-5.65 131.19-6.75 131.64-8.45L131.64-8.45ZM128.99 4.15L129.29 2.7Q126.79 3.65 125.59 4.67 124.39 5.7 124.39 6.95L124.39 6.95Q124.39 7.6 124.89 8.1 125.39 8.6 126.09 8.6L126.09 8.6Q126.94 8.6 127.74 7.4 128.54 6.2 128.99 4.15L128.99 4.15ZM145.09-23L145.49-25 147.14-25 148.64-31.9 156.04-32.9 154.34-25 157.34-25 156.94-23 153.94-23 150.74-8Q150.64-7.55 150.59-7.18 150.54-6.8 150.54-6.4L150.54-6.4Q150.54-5.4 151.01-4.98 151.49-4.55 152.59-4.55L152.59-4.55Q153.99-4.55 155.24-5.78 156.49-7 157.09-8.95L157.09-8.95 159.19-8.95Q157.59-4.4 154.89-2.05 152.19 0.3 148.69 0.3L148.69 0.3Q146.19 0.3 144.76-1.28 143.34-2.85 143.34-5.7L143.34-5.7Q143.34-6.35 143.44-7.18 143.54-8 143.74-8.95L143.74-8.95 146.74-23 145.09-23ZM173.33-22.7L173.33-22.7 173.33-22.35 173.88-25 181.08-25 177.48-8Q177.38-7.55 177.33-7.18 177.28-6.8 177.28-6.4L177.28-6.4Q177.28-5.3 177.78-4.78 178.28-4.25 179.33-4.25L179.33-4.25Q180.63-4.25 181.68-5.48 182.73-6.7 183.38-8.95L183.38-8.95 185.48-8.95Q183.88-4.35 181.33-2.02 178.78 0.3 175.43 0.3L175.43 0.3Q173.28 0.3 172.01-0.9 170.73-2.1 170.53-4.3L170.53-4.3Q168.98-2 167.11-0.85 165.23 0.3 163.08 0.3L163.08 0.3Q159.98 0.3 158.21-1.8 156.43-3.9 156.43-7.75L156.43-7.75Q156.43-10.55 157.28-13.6 158.13-16.65 159.63-19.15L159.63-19.15Q161.48-22.1 163.93-23.68 166.38-25.25 169.28-25.25L169.28-25.25Q171.23-25.25 172.28-24.58 173.33-23.9 173.33-22.7ZM170.48-8.95L172.88-20.25Q172.88-21 172.33-21.58 171.78-22.15 170.83-22.15L170.83-22.15Q168.08-22.15 165.96-17.55 163.83-12.95 163.83-8.45L163.83-8.45Q163.83-6.5 164.38-5.53 164.93-4.55 166.33-4.55L166.33-4.55Q167.63-4.55 168.86-5.8 170.08-7.05 170.48-8.95L170.48-8.95ZM182.98-5.7L182.98-5.7Q182.98-6.35 183.08-7.18 183.18-8 183.38-8.95L183.38-8.95 188.73-34 196.13-35 190.38-8Q190.28-7.55 190.23-7.18 190.18-6.8 190.18-6.4L190.18-6.4Q190.18-5.4 190.66-4.98 191.13-4.55 192.23-4.55L192.23-4.55Q193.63-4.55 194.88-5.78 196.13-7 196.73-8.95L196.73-8.95 198.83-8.95Q197.23-4.4 194.53-2.05 191.83 0.3 188.33 0.3L188.33 0.3Q185.83 0.3 184.41-1.28 182.98-2.85 182.98-5.7ZM218.73-10.45L229.73-36.8 236.93-36.8 231.68 0 224.48 0 227.68-22.45 218.28 0 211.43 0 212.43-22.55 204.08 0 200.08 0 212.78-34.35Q208.93-33.05 206.88-30.15 204.83-27.25 204.83-23.1L204.83-23.1Q204.83-22.1 204.95-21.38 205.08-20.65 205.38-20.05L205.38-20.05Q205.48-19.85 205.5-19.78 205.53-19.7 205.53-19.65L205.53-19.65Q202.83-19.65 201.5-20.78 200.18-21.9 200.18-24.2L200.18-24.2Q200.18-26.6 201.65-29.08 203.13-31.55 205.73-33.6L205.73-33.6Q208.08-35.45 210.78-36.48 213.48-37.5 216.08-37.5L216.08-37.5Q217.03-37.5 218-37.33 218.98-37.15 219.88-36.8L219.88-36.8 218.73-10.45ZM254.43-20.65L254.43-20.65Q254.43-16.5 251.03-13.43 247.63-10.35 242.93-10.1L242.93-10.1Q242.88-9.25 242.85-8.83 242.83-8.4 242.83-8.1L242.83-8.1Q242.83-5.8 243.6-4.85 244.38-3.9 246.43-3.9L246.43-3.9Q248.78-3.9 250.75-4.98 252.73-6.05 255.28-8.95L255.28-8.95 256.98-8.95Q254.08-4.25 250.68-1.98 247.28 0.3 243.23 0.3L243.23 0.3Q239.38 0.3 237.4-1.7 235.43-3.7 235.43-7.65L235.43-7.65Q235.43-10.5 236.33-13.7 237.23-16.9 238.73-19.4L238.73-19.4Q240.58-22.4 243.15-23.93 245.73-25.45 248.93-25.45L248.93-25.45Q251.68-25.45 253.05-24.28 254.43-23.1 254.43-20.65ZM249.33-22.8L249.33-22.8Q247.63-22.8 245.9-19.78 244.18-16.75 243.33-12.5L243.33-12.5Q246.23-12.7 248.4-15.18 250.58-17.65 250.58-20.75L250.58-20.75Q250.58-21.8 250.28-22.3 249.98-22.8 249.33-22.8ZM267.67-5.35L267.67-5.35Q267.67-6.25 267.9-7.6 268.12-8.95 268.82-11.9L268.82-11.9Q269.52-14.75 269.72-16 269.92-17.25 269.92-18.1L269.92-18.1Q269.92-19.35 269.47-20 269.02-20.65 268.12-20.65L268.12-20.65Q266.92-20.65 265.9-19.43 264.87-18.2 264.22-16.05L264.22-16.05 260.82 0 253.62 0 258.92-25 266.12-25 265.57-22.4Q266.82-23.8 268.27-24.5 269.72-25.2 271.42-25.2L271.42-25.2Q274.07-25.2 275.52-23.75 276.97-22.3 276.97-19.55L276.97-19.55Q276.97-18.4 276.7-16.82 276.42-15.25 275.62-12L275.62-12Q274.97-9.45 274.77-8.4 274.57-7.35 274.57-6.65L274.57-6.65Q274.57-5.6 275.07-5.08 275.57-4.55 276.57-4.55L276.57-4.55Q277.82-4.55 278.72-5.4 279.62-6.25 280.77-8.95L280.77-8.95 282.87-8.95Q281.27-4.3 279-2 276.72 0.3 273.57 0.3L273.57 0.3Q270.77 0.3 269.22-1.23 267.67-2.75 267.67-5.35ZM289.12-4.55L289.12-4.55Q290.42-4.55 291.45-5.68 292.47-6.8 293.12-8.95L293.12-8.95 296.52-25 303.72-25 300.12-8Q300.02-7.55 299.97-7.18 299.92-6.8 299.92-6.4L299.92-6.4Q299.92-5.4 300.4-4.98 300.87-4.55 301.97-4.55L301.97-4.55Q303.27-4.55 304.32-5.7 305.37-6.85 306.02-8.95L306.02-8.95 308.12-8.95Q306.52-4.35 303.97-2.02 301.42 0.3 298.07 0.3L298.07 0.3Q295.92 0.3 294.62-0.93 293.32-2.15 293.12-4.45L293.12-4.45Q291.67-2.05 289.85-0.88 288.02 0.3 285.72 0.3L285.72 0.3Q283.22 0.3 281.8-1.28 280.37-2.85 280.37-5.7L280.37-5.7Q280.37-6.35 280.47-7.18 280.57-8 280.77-8.95L280.77-8.95 284.17-25 291.37-25 287.77-8Q287.67-7.6 287.65-7.28 287.62-6.95 287.62-6.6L287.62-6.6Q287.62-5.6 288-5.08 288.37-4.55 289.12-4.55Z" opacity="1" transform="matrix(1,0,0,1,0,0)" fill="#000000" class="slogan-text-1" data-fill-palette-color="secondary" id="text-1"></path></svg></g></svg></g></svg></g></svg></g></svg></g><defs></defs></svg><rect width="382.56523744680914" height="200" fill="none" stroke="none" visibility="hidden"></rect></g></svg></g></svg>